<mxfile host="app.diagrams.net" modified="2023-10-02T09:07:46.387Z" agent="Mozilla/5.0 (Windows NT 10.0; Win64; x64) AppleWebKit/537.36 (KHTML, like Gecko) Chrome/117.0.0.0 Safari/537.36" etag="iO1GO6Q4T9JCum55nvFg" version="22.0.0" type="github">
  <diagram id="C5RBs43oDa-KdzZeNtuy" name="Page-1">
    <mxGraphModel dx="1434" dy="800" grid="1" gridSize="10" guides="1" tooltips="1" connect="1" arrows="1" fold="1" page="1" pageScale="1" pageWidth="827" pageHeight="1169" math="0" shadow="0">
      <root>
        <mxCell id="WIyWlLk6GJQsqaUBKTNV-0" />
        <mxCell id="WIyWlLk6GJQsqaUBKTNV-1" parent="WIyWlLk6GJQsqaUBKTNV-0" />
        <mxCell id="rdniBUThujNIPeCGybko-0" value="USER" style="rounded=0;whiteSpace=wrap;html=1;" vertex="1" parent="WIyWlLk6GJQsqaUBKTNV-1">
          <mxGeometry x="90" y="100" width="120" height="60" as="geometry" />
        </mxCell>
        <mxCell id="rdniBUThujNIPeCGybko-4" value="REQUEST" style="endArrow=classic;html=1;rounded=0;exitX=1;exitY=0.5;exitDx=0;exitDy=0;" edge="1" parent="WIyWlLk6GJQsqaUBKTNV-1" source="rdniBUThujNIPeCGybko-0">
          <mxGeometry width="50" height="50" relative="1" as="geometry">
            <mxPoint x="390" y="440" as="sourcePoint" />
            <mxPoint x="350" y="130" as="targetPoint" />
            <Array as="points">
              <mxPoint x="280" y="130" />
            </Array>
          </mxGeometry>
        </mxCell>
        <mxCell id="rdniBUThujNIPeCGybko-31" style="edgeStyle=orthogonalEdgeStyle;rounded=0;orthogonalLoop=1;jettySize=auto;html=1;entryX=0.5;entryY=0;entryDx=0;entryDy=0;" edge="1" parent="WIyWlLk6GJQsqaUBKTNV-1" source="rdniBUThujNIPeCGybko-5" target="rdniBUThujNIPeCGybko-30">
          <mxGeometry relative="1" as="geometry" />
        </mxCell>
        <mxCell id="rdniBUThujNIPeCGybko-5" value="SERVER" style="rounded=0;whiteSpace=wrap;html=1;" vertex="1" parent="WIyWlLk6GJQsqaUBKTNV-1">
          <mxGeometry x="354" y="100" width="120" height="60" as="geometry" />
        </mxCell>
        <mxCell id="rdniBUThujNIPeCGybko-19" value="Error!&lt;br&gt;IP&amp;nbsp; already in use&lt;br&gt;multiple same IP reuquests" style="rounded=0;whiteSpace=wrap;html=1;" vertex="1" parent="WIyWlLk6GJQsqaUBKTNV-1">
          <mxGeometry x="380" y="520" width="120" height="60" as="geometry" />
        </mxCell>
        <mxCell id="rdniBUThujNIPeCGybko-30" value="GET USER IP" style="rounded=0;whiteSpace=wrap;html=1;" vertex="1" parent="WIyWlLk6GJQsqaUBKTNV-1">
          <mxGeometry x="354" y="210" width="120" height="60" as="geometry" />
        </mxCell>
        <mxCell id="rdniBUThujNIPeCGybko-35" style="edgeStyle=orthogonalEdgeStyle;rounded=0;orthogonalLoop=1;jettySize=auto;html=1;" edge="1" parent="WIyWlLk6GJQsqaUBKTNV-1" source="rdniBUThujNIPeCGybko-33">
          <mxGeometry relative="1" as="geometry">
            <mxPoint x="600" y="380" as="targetPoint" />
          </mxGeometry>
        </mxCell>
        <mxCell id="rdniBUThujNIPeCGybko-33" value="IP DATABASE" style="shape=cylinder3;whiteSpace=wrap;html=1;boundedLbl=1;backgroundOutline=1;size=15;" vertex="1" parent="WIyWlLk6GJQsqaUBKTNV-1">
          <mxGeometry x="570" y="200" width="60" height="80" as="geometry" />
        </mxCell>
        <mxCell id="rdniBUThujNIPeCGybko-34" style="edgeStyle=orthogonalEdgeStyle;rounded=0;orthogonalLoop=1;jettySize=auto;html=1;entryX=0;entryY=0.5;entryDx=0;entryDy=0;entryPerimeter=0;" edge="1" parent="WIyWlLk6GJQsqaUBKTNV-1" source="rdniBUThujNIPeCGybko-30" target="rdniBUThujNIPeCGybko-33">
          <mxGeometry relative="1" as="geometry" />
        </mxCell>
        <mxCell id="rdniBUThujNIPeCGybko-40" style="edgeStyle=orthogonalEdgeStyle;rounded=0;orthogonalLoop=1;jettySize=auto;html=1;entryX=0.5;entryY=0;entryDx=0;entryDy=0;" edge="1" parent="WIyWlLk6GJQsqaUBKTNV-1" source="rdniBUThujNIPeCGybko-37" target="rdniBUThujNIPeCGybko-19">
          <mxGeometry relative="1" as="geometry" />
        </mxCell>
        <mxCell id="rdniBUThujNIPeCGybko-43" value="FALSE" style="edgeLabel;html=1;align=center;verticalAlign=middle;resizable=0;points=[];" vertex="1" connectable="0" parent="rdniBUThujNIPeCGybko-40">
          <mxGeometry x="-0.3182" y="2" relative="1" as="geometry">
            <mxPoint as="offset" />
          </mxGeometry>
        </mxCell>
        <mxCell id="rdniBUThujNIPeCGybko-41" style="edgeStyle=orthogonalEdgeStyle;rounded=0;orthogonalLoop=1;jettySize=auto;html=1;exitX=1;exitY=0.5;exitDx=0;exitDy=0;" edge="1" parent="WIyWlLk6GJQsqaUBKTNV-1" source="rdniBUThujNIPeCGybko-37">
          <mxGeometry relative="1" as="geometry">
            <mxPoint x="760" y="520" as="targetPoint" />
            <mxPoint x="680" y="420" as="sourcePoint" />
            <Array as="points">
              <mxPoint x="761" y="420" />
            </Array>
          </mxGeometry>
        </mxCell>
        <mxCell id="rdniBUThujNIPeCGybko-47" value="TRUE" style="edgeLabel;html=1;align=center;verticalAlign=middle;resizable=0;points=[];" vertex="1" connectable="0" parent="rdniBUThujNIPeCGybko-41">
          <mxGeometry x="-0.1765" y="1" relative="1" as="geometry">
            <mxPoint as="offset" />
          </mxGeometry>
        </mxCell>
        <mxCell id="rdniBUThujNIPeCGybko-37" value="IP TEST" style="rhombus;whiteSpace=wrap;html=1;" vertex="1" parent="WIyWlLk6GJQsqaUBKTNV-1">
          <mxGeometry x="560" y="380" width="80" height="80" as="geometry" />
        </mxCell>
        <mxCell id="rdniBUThujNIPeCGybko-77" style="edgeStyle=orthogonalEdgeStyle;rounded=0;orthogonalLoop=1;jettySize=auto;html=1;" edge="1" parent="WIyWlLk6GJQsqaUBKTNV-1" source="rdniBUThujNIPeCGybko-45" target="rdniBUThujNIPeCGybko-48">
          <mxGeometry relative="1" as="geometry" />
        </mxCell>
        <mxCell id="rdniBUThujNIPeCGybko-45" value="USER DATA" style="shape=cylinder3;whiteSpace=wrap;html=1;boundedLbl=1;backgroundOutline=1;size=15;" vertex="1" parent="WIyWlLk6GJQsqaUBKTNV-1">
          <mxGeometry x="730" y="520" width="60" height="80" as="geometry" />
        </mxCell>
        <mxCell id="rdniBUThujNIPeCGybko-51" value="FALSE" style="edgeStyle=orthogonalEdgeStyle;rounded=0;orthogonalLoop=1;jettySize=auto;html=1;" edge="1" parent="WIyWlLk6GJQsqaUBKTNV-1" source="rdniBUThujNIPeCGybko-48">
          <mxGeometry relative="1" as="geometry">
            <mxPoint x="660" y="860" as="targetPoint" />
          </mxGeometry>
        </mxCell>
        <mxCell id="rdniBUThujNIPeCGybko-75" style="edgeStyle=orthogonalEdgeStyle;rounded=0;orthogonalLoop=1;jettySize=auto;html=1;" edge="1" parent="WIyWlLk6GJQsqaUBKTNV-1" source="rdniBUThujNIPeCGybko-48">
          <mxGeometry relative="1" as="geometry">
            <mxPoint x="880" y="790" as="targetPoint" />
          </mxGeometry>
        </mxCell>
        <mxCell id="rdniBUThujNIPeCGybko-76" value="TRUE" style="edgeLabel;html=1;align=center;verticalAlign=middle;resizable=0;points=[];" vertex="1" connectable="0" parent="rdniBUThujNIPeCGybko-75">
          <mxGeometry x="0.1071" y="4" relative="1" as="geometry">
            <mxPoint as="offset" />
          </mxGeometry>
        </mxCell>
        <mxCell id="rdniBUThujNIPeCGybko-48" value="EMAIL AND PASSWORD CHECK" style="rhombus;whiteSpace=wrap;html=1;" vertex="1" parent="WIyWlLk6GJQsqaUBKTNV-1">
          <mxGeometry x="702.1899999999999" y="670" width="115.62" height="110" as="geometry" />
        </mxCell>
        <mxCell id="rdniBUThujNIPeCGybko-67" style="edgeStyle=orthogonalEdgeStyle;rounded=0;orthogonalLoop=1;jettySize=auto;html=1;entryX=0.75;entryY=1;entryDx=0;entryDy=0;" edge="1" parent="WIyWlLk6GJQsqaUBKTNV-1" source="rdniBUThujNIPeCGybko-66" target="rdniBUThujNIPeCGybko-0">
          <mxGeometry relative="1" as="geometry">
            <mxPoint x="150" y="890" as="targetPoint" />
          </mxGeometry>
        </mxCell>
        <mxCell id="rdniBUThujNIPeCGybko-66" value="Return &quot;wrong email/password)" style="rounded=0;whiteSpace=wrap;html=1;" vertex="1" parent="WIyWlLk6GJQsqaUBKTNV-1">
          <mxGeometry x="600" y="860" width="120" height="60" as="geometry" />
        </mxCell>
        <mxCell id="rdniBUThujNIPeCGybko-73" style="edgeStyle=orthogonalEdgeStyle;rounded=0;orthogonalLoop=1;jettySize=auto;html=1;entryX=0.5;entryY=1;entryDx=0;entryDy=0;" edge="1" parent="WIyWlLk6GJQsqaUBKTNV-1" source="rdniBUThujNIPeCGybko-70" target="rdniBUThujNIPeCGybko-0">
          <mxGeometry relative="1" as="geometry" />
        </mxCell>
        <mxCell id="rdniBUThujNIPeCGybko-70" value="Return Home Page" style="rounded=0;whiteSpace=wrap;html=1;" vertex="1" parent="WIyWlLk6GJQsqaUBKTNV-1">
          <mxGeometry x="810" y="790" width="120" height="60" as="geometry" />
        </mxCell>
      </root>
    </mxGraphModel>
  </diagram>
</mxfile>
